<svg width="201" height="50" viewBox="0 0 201 50" fill="none" xmlns="http://www.w3.org/2000/svg">
<path d="M13.5838 33.6832C13.2975 33.6832 13.0303 33.645 12.7822 33.5687C12.5341 33.4923 12.286 33.3587 12.0378 33.1679C11.9233 33.0533 11.7229 32.8434 11.4366 32.538C11.1694 32.2326 10.8545 31.8891 10.4918 31.5073C10.1483 31.1065 9.79516 30.7057 9.43251 30.3049C9.06987 29.885 8.7454 29.5128 8.4591 29.1883C8.1728 28.8638 7.96285 28.6252 7.82924 28.4726C7.61929 28.2435 7.43797 28.0813 7.28528 27.9858C7.13258 27.8904 6.894 27.8045 6.56953 27.7282L5.05215 27.6709V33.54H2.87628V21.1719C2.87628 20.9811 2.88582 20.8284 2.90491 20.7139C2.94308 20.5993 3.00988 20.5135 3.10532 20.4562C3.21984 20.3989 3.39162 20.3703 3.62065 20.3703C3.86878 20.3703 4.10736 20.3703 4.3364 20.3703C4.58453 20.3703 4.82311 20.3703 5.05215 20.3703C5.05215 20.6375 5.05215 21.0288 5.05215 21.5441C5.05215 22.0404 5.05215 22.5748 5.05215 23.1474C5.05215 23.7009 5.05215 24.2353 5.05215 24.7507C5.05215 25.2469 5.05215 25.6287 5.05215 25.8959L6.56953 25.81C6.83674 25.7909 7.03715 25.7336 7.17076 25.6382C7.30436 25.5428 7.45705 25.3996 7.62883 25.2088C8.04874 24.7507 8.48773 24.2735 8.94581 23.7773C9.42297 23.281 9.90968 22.7752 10.4059 22.2599C10.9022 21.7445 11.3698 21.2483 11.8088 20.7711C12.0378 20.5993 12.2764 20.4753 12.5245 20.3989C12.7727 20.3226 13.059 20.2844 13.3834 20.2844C13.6506 20.2844 13.8701 20.3035 14.0419 20.3417C14.2137 20.3798 14.3855 20.4276 14.5573 20.4848C14.5191 20.5039 14.3855 20.6375 14.1564 20.8856C13.9465 21.1147 13.6984 21.3819 13.4121 21.6873C13.1258 21.9736 12.8776 22.2312 12.6677 22.4603C12.1714 22.9184 11.6466 23.3955 11.093 23.8918C10.5395 24.388 10.0051 24.8843 9.48977 25.3805C8.99352 25.8577 8.5259 26.3062 8.08691 26.7261L8.1728 26.2681C8.44001 26.478 8.8122 26.8311 9.28937 27.3274C9.78562 27.8045 10.3487 28.3771 10.9785 29.0452C11.6084 29.6941 12.2669 30.3812 12.954 31.1065C13.6411 31.8318 14.3091 32.5094 14.9581 33.1392C14.9199 33.1965 14.834 33.2728 14.7004 33.3683C14.5668 33.4446 14.4141 33.5114 14.2423 33.5687C14.0706 33.645 13.8511 33.6832 13.5838 33.6832ZM21.1833 33.54V28.1863L16.3448 21.0861L15.8295 20.3703H18.7497L22.7579 26.6402L26.8234 20.3703H28.8275L28.1976 21.1719L23.3591 28.1863V32.538C23.3782 32.7861 23.3591 32.9865 23.3019 33.1392C23.2446 33.2728 23.1492 33.3778 23.0156 33.4541C22.882 33.5114 22.672 33.54 22.3857 33.54H21.1833ZM37.2129 33.7404C36.0677 33.7404 35.0561 33.6546 34.1781 33.4828C33.3001 33.311 32.5462 32.9961 31.9163 32.538C31.3056 32.0608 30.838 31.3737 30.5135 30.4766C30.189 29.5796 30.0268 28.3962 30.0268 26.9265C30.0268 25.4378 30.1986 24.2449 30.5421 23.3478C30.9048 22.4317 31.4105 21.7445 32.0595 21.2865C32.7084 20.8284 33.4814 20.523 34.3785 20.3703C35.2947 20.2176 36.3158 20.1413 37.4419 20.1413C38.568 20.1413 39.5701 20.2272 40.448 20.3989C41.326 20.5516 42.0704 20.8666 42.6812 21.3437C43.311 21.8018 43.7882 22.4794 44.1127 23.3764C44.4371 24.2735 44.5994 25.4569 44.5994 26.9265C44.5994 28.4344 44.418 29.6368 44.0554 30.5339C43.7118 31.431 43.2156 32.1181 42.5666 32.5953C41.9368 33.0533 41.1638 33.3587 40.2476 33.5114C39.3506 33.6641 38.339 33.7404 37.2129 33.7404ZM37.2988 32.5094C38.1004 32.5094 38.8161 32.4426 39.446 32.309C40.0759 32.1563 40.6007 31.8891 41.0206 31.5073C41.4596 31.1256 41.7841 30.5721 41.9941 29.8468C42.2231 29.1024 42.3376 28.129 42.3376 26.9265C42.3376 25.7432 42.2231 24.7888 41.9941 24.0636C41.7841 23.3192 41.4596 22.7561 41.0206 22.3744C40.6007 21.9736 40.0759 21.7064 39.446 21.5728C38.8161 21.4392 38.1004 21.3724 37.2988 21.3724C36.478 21.3724 35.7527 21.4392 35.1229 21.5728C34.5121 21.7064 33.9968 21.9736 33.5769 22.3744C33.157 22.7561 32.8325 23.3192 32.6035 24.0636C32.3935 24.7888 32.2885 25.7432 32.2885 26.9265C32.2885 28.129 32.3935 29.1024 32.6035 29.8468C32.8325 30.5721 33.157 31.1256 33.5769 31.5073C33.9968 31.8891 34.5121 32.1563 35.1229 32.309C35.7527 32.4426 36.478 32.5094 37.2988 32.5094ZM46.1995 20.3703H59.2261V21.6586H53.8151V32.5953C53.8151 32.9579 53.7673 33.206 53.6719 33.3396C53.5956 33.4732 53.3856 33.54 53.042 33.54H51.6392V21.6586H46.1995V20.3703ZM68.0235 33.7404C66.8783 33.7404 65.8667 33.6546 64.9887 33.4828C64.1108 33.311 63.3568 32.9961 62.727 32.538C62.1162 32.0608 61.6486 31.3737 61.3241 30.4766C60.9997 29.5796 60.8374 28.3962 60.8374 26.9265C60.8374 25.4378 61.0092 24.2449 61.3528 23.3478C61.7154 22.4317 62.2212 21.7445 62.8701 21.2865C63.5191 20.8284 64.2921 20.523 65.1892 20.3703C66.1053 20.2176 67.1264 20.1413 68.2525 20.1413C69.3787 20.1413 70.3807 20.2272 71.2587 20.3989C72.1367 20.5516 72.881 20.8666 73.4918 21.3437C74.1217 21.8018 74.5988 22.4794 74.9233 23.3764C75.2478 24.2735 75.41 25.4569 75.41 26.9265C75.41 28.4344 75.2287 29.6368 74.866 30.5339C74.5225 31.431 74.0262 32.1181 73.3773 32.5953C72.7474 33.0533 71.9744 33.3587 71.0583 33.5114C70.1612 33.6641 69.1496 33.7404 68.0235 33.7404ZM68.1094 32.5094C68.911 32.5094 69.6268 32.4426 70.2566 32.309C70.8865 32.1563 71.4114 31.8891 71.8313 31.5073C72.2703 31.1256 72.5947 30.5721 72.8047 29.8468C73.0337 29.1024 73.1483 28.129 73.1483 26.9265C73.1483 25.7432 73.0337 24.7888 72.8047 24.0636C72.5947 23.3192 72.2703 22.7561 71.8313 22.3744C71.4114 21.9736 70.8865 21.7064 70.2566 21.5728C69.6268 21.4392 68.911 21.3724 68.1094 21.3724C67.2887 21.3724 66.5634 21.4392 65.9335 21.5728C65.3228 21.7064 64.8074 21.9736 64.3875 22.3744C63.9676 22.7561 63.6431 23.3192 63.4141 24.0636C63.2042 24.7888 63.0992 25.7432 63.0992 26.9265C63.0992 28.129 63.2042 29.1024 63.4141 29.8468C63.6431 30.5721 63.9676 31.1256 64.3875 31.5073C64.8074 31.8891 65.3228 32.1563 65.9335 32.309C66.5634 32.4426 67.2887 32.5094 68.1094 32.5094Z" fill="#E0D7D7"/>
<path d="M82.0062 7.62109V10.3987L82.4847 10.8788L88.6197 16.4861L89.0997 16.8696H91.3037V23.5158H88.2362V26.5833H91.3037V41.4094H94.3712V26.5848H109.709V41.411H112.776V26.5848H115.844V23.5173H112.776V16.8711H114.885L115.365 16.4877L121.5 10.8803L121.979 10.3987V7.62263L120.109 8.05361C120.055 8.06435 113.584 9.20238 102.04 9.20238C90.4954 9.20238 83.9279 8.06435 83.8743 8.05208L82.0062 7.62109ZM87.8988 11.5981C91.1427 11.9232 95.773 12.2699 102.04 12.2699C106.729 12.282 111.416 12.0578 116.083 11.5981L113.687 13.8036H90.2976L87.8988 11.5981ZM94.3712 16.8711H99.9949V23.5177L94.3712 23.5173V16.8711ZM104.085 16.8711H109.709V23.5173L104.085 23.5177V16.8711Z" fill="#AE0C02"/>
<path d="M128.069 31.5359C128.469 31.8032 128.985 32.0036 129.615 32.1372C130.263 32.2517 130.932 32.328 131.619 32.3662C132.325 32.3853 132.936 32.3948 133.451 32.3948C133.642 32.3948 133.861 32.3948 134.109 32.3948C134.358 32.3948 134.577 32.3853 134.768 32.3662C135.531 32.3471 136.199 32.2612 136.772 32.1085C137.345 31.9368 137.793 31.66 138.118 31.2783C138.442 30.8775 138.604 30.3144 138.604 29.5891C138.604 28.7111 138.375 28.1385 137.917 27.8713C137.459 27.6041 136.791 27.4705 135.913 27.4705C135.627 27.4705 135.321 27.4705 134.997 27.4705C134.672 27.4705 134.329 27.4705 133.966 27.4705C133.604 27.4705 133.184 27.4705 132.707 27.4705C132.172 27.4705 131.628 27.4514 131.075 27.4132C130.521 27.356 130.015 27.2319 129.557 27.0411C129.099 26.8311 128.737 26.5162 128.469 26.0963C128.202 25.6573 128.069 25.037 128.069 24.2353C128.069 23.3001 128.231 22.5653 128.555 22.0308C128.899 21.4964 129.376 21.1051 129.987 20.857C130.597 20.6089 131.294 20.4467 132.077 20.3703C132.878 20.294 133.728 20.2558 134.625 20.2558C135.159 20.2558 135.76 20.2653 136.428 20.2844C137.116 20.3035 137.755 20.3512 138.347 20.4276C138.957 20.5039 139.435 20.6375 139.778 20.8284C140.084 20.8666 140.313 20.962 140.465 21.1147C140.637 21.2674 140.723 21.4582 140.723 21.6873C140.723 21.7636 140.723 21.8591 140.723 21.9736C140.723 22.069 140.723 22.1644 140.723 22.2599C140.723 22.3553 140.723 22.4221 140.723 22.4603C140.551 22.2694 140.265 22.1167 139.864 22.0022C139.463 21.8877 139.005 21.8018 138.49 21.7445C137.994 21.6682 137.507 21.6205 137.03 21.6014C136.553 21.5632 136.161 21.5441 135.856 21.5441H134.167C133.48 21.5441 132.84 21.6014 132.248 21.7159C131.657 21.8304 131.18 22.069 130.817 22.4317C130.473 22.7752 130.302 23.3287 130.302 24.0922C130.302 24.6839 130.416 25.1229 130.645 25.4092C130.893 25.6955 131.237 25.8863 131.676 25.9818C132.115 26.0581 132.64 26.0963 133.251 26.0963C133.995 26.0963 134.653 26.0963 135.226 26.0963C135.799 26.0963 136.266 26.0963 136.629 26.0963C137.469 26.0963 138.213 26.1726 138.862 26.3253C139.511 26.4589 140.017 26.7738 140.379 27.2701C140.742 27.7473 140.923 28.5012 140.923 29.5319C140.923 30.5434 140.694 31.3451 140.236 31.9368C139.797 32.5285 139.186 32.9484 138.404 33.1965C137.64 33.4446 136.762 33.5973 135.77 33.6546C135.293 33.6736 134.835 33.6832 134.396 33.6832C133.957 33.7023 133.499 33.7023 133.021 33.6832C132.582 33.6832 132.077 33.6641 131.504 33.6259C130.932 33.5878 130.378 33.5305 129.844 33.4541C129.328 33.3587 128.899 33.2251 128.555 33.0533C128.231 32.8625 128.069 32.6143 128.069 32.309V31.5359ZM157.009 27.9C157.009 28.7207 156.971 29.4841 156.895 30.1903C156.818 30.8775 156.58 31.4787 156.179 31.994C155.797 32.5094 155.167 32.9102 154.289 33.1965C153.43 33.4828 152.209 33.6259 150.625 33.6259C149.365 33.6259 148.334 33.54 147.533 33.3683C146.75 33.1774 146.139 32.9102 145.7 32.5666C145.28 32.2231 144.975 31.8222 144.784 31.3642C144.593 30.9061 144.469 30.4003 144.412 29.8468C144.374 29.2742 144.355 28.6825 144.355 28.0717V21.5155C144.355 21.2101 144.364 20.9715 144.383 20.7998C144.402 20.628 144.479 20.5135 144.612 20.4562C144.746 20.3989 144.946 20.3703 145.214 20.3703H146.559V29.0452C146.559 29.904 146.693 30.5721 146.96 31.0492C147.246 31.5073 147.685 31.8318 148.277 32.0227C148.888 32.2135 149.67 32.309 150.625 32.309C152.113 32.309 153.182 32.0608 153.831 31.5646C154.499 31.0492 154.833 30.2094 154.833 29.0452V20.3703H156.122C156.408 20.3703 156.618 20.3989 156.751 20.4562C156.885 20.5135 156.961 20.628 156.98 20.7998C157 20.9715 157.009 21.2101 157.009 21.5155V27.9ZM160.585 31.5359C160.985 31.8032 161.501 32.0036 162.131 32.1372C162.78 32.2517 163.448 32.328 164.135 32.3662C164.841 32.3853 165.452 32.3948 165.967 32.3948C166.158 32.3948 166.377 32.3948 166.626 32.3948C166.874 32.3948 167.093 32.3853 167.284 32.3662C168.048 32.3471 168.716 32.2612 169.288 32.1085C169.861 31.9368 170.309 31.66 170.634 31.2783C170.958 30.8775 171.12 30.3144 171.12 29.5891C171.12 28.7111 170.891 28.1385 170.433 27.8713C169.975 27.6041 169.307 27.4705 168.429 27.4705C168.143 27.4705 167.838 27.4705 167.513 27.4705C167.189 27.4705 166.845 27.4705 166.482 27.4705C166.12 27.4705 165.7 27.4705 165.223 27.4705C164.688 27.4705 164.144 27.4514 163.591 27.4132C163.037 27.356 162.531 27.2319 162.073 27.0411C161.615 26.8311 161.253 26.5162 160.985 26.0963C160.718 25.6573 160.585 25.037 160.585 24.2353C160.585 23.3001 160.747 22.5653 161.071 22.0308C161.415 21.4964 161.892 21.1051 162.503 20.857C163.114 20.6089 163.81 20.4467 164.593 20.3703C165.394 20.294 166.244 20.2558 167.141 20.2558C167.675 20.2558 168.277 20.2653 168.945 20.2844C169.632 20.3035 170.271 20.3512 170.863 20.4276C171.474 20.5039 171.951 20.6375 172.294 20.8284C172.6 20.8666 172.829 20.962 172.981 21.1147C173.153 21.2674 173.239 21.4582 173.239 21.6873C173.239 21.7636 173.239 21.8591 173.239 21.9736C173.239 22.069 173.239 22.1644 173.239 22.2599C173.239 22.3553 173.239 22.4221 173.239 22.4603C173.067 22.2694 172.781 22.1167 172.38 22.0022C171.979 21.8877 171.521 21.8018 171.006 21.7445C170.51 21.6682 170.023 21.6205 169.546 21.6014C169.069 21.5632 168.677 21.5441 168.372 21.5441H166.683C165.996 21.5441 165.356 21.6014 164.765 21.7159C164.173 21.8304 163.696 22.069 163.333 22.4317C162.99 22.7752 162.818 23.3287 162.818 24.0922C162.818 24.6839 162.932 25.1229 163.161 25.4092C163.409 25.6955 163.753 25.8863 164.192 25.9818C164.631 26.0581 165.156 26.0963 165.767 26.0963C166.511 26.0963 167.17 26.0963 167.742 26.0963C168.315 26.0963 168.782 26.0963 169.145 26.0963C169.985 26.0963 170.729 26.1726 171.378 26.3253C172.027 26.4589 172.533 26.7738 172.895 27.2701C173.258 27.7473 173.439 28.5012 173.439 29.5319C173.439 30.5434 173.21 31.3451 172.752 31.9368C172.313 32.5285 171.703 32.9484 170.92 33.1965C170.157 33.4446 169.279 33.5973 168.286 33.6546C167.809 33.6736 167.351 33.6832 166.912 33.6832C166.473 33.7023 166.015 33.7023 165.538 33.6832C165.099 33.6832 164.593 33.6641 164.02 33.6259C163.448 33.5878 162.894 33.5305 162.36 33.4541C161.844 33.3587 161.415 33.2251 161.071 33.0533C160.747 32.8625 160.585 32.6143 160.585 32.309V31.5359ZM177.157 33.54V21.2006C177.157 20.8379 177.214 20.6089 177.329 20.5135C177.462 20.418 177.682 20.3703 177.987 20.3703H179.362V26.0963H188.036V20.3703H190.241V32.6525C190.241 33.0152 190.193 33.2537 190.098 33.3683C190.002 33.4828 189.773 33.54 189.411 33.54H188.036V27.3846H179.362V33.54H177.157ZM194.995 33.54C194.995 31.4978 194.995 29.4555 194.995 27.4132C194.995 25.371 194.995 23.3287 194.995 21.2865C194.995 21.0765 195.004 20.9143 195.023 20.7998C195.062 20.6661 195.128 20.5612 195.224 20.4848C195.338 20.4085 195.52 20.3703 195.768 20.3703H197.199V33.54H194.995Z" fill="#E0D7D7"/>
</svg>
